<?xml version="1.0" standalone="no"?>
<!DOCTYPE svg PUBLIC "-//W3C//DTD SVG 20010904//EN"
 "http://www.w3.org/TR/2001/REC-SVG-20010904/DTD/svg10.dtd">
<svg version="1.0" xmlns="http://www.w3.org/2000/svg"
 width="1100.000000pt" height="1100.000000pt" viewBox="0 0 1100.000000 1100.000000"
 preserveAspectRatio="xMidYMid meet">
<metadata>
Created by potrace 1.14, written by Peter Selinger 2001-2017
</metadata>
<g transform="translate(0.000000,1100.000000) scale(0.100000,-0.100000)"
fill="#000000" stroke="none">
<path d="M5189 9500 c-306 -46 -507 -109 -784 -245 -337 -165 -564 -335 -818
-613 -207 -226 -343 -425 -487 -711 -47 -94 -136 -301 -165 -386 -64 -184
-114 -376 -136 -517 -7 -49 -17 -88 -21 -88 -4 0 -12 -18 -18 -40 -11 -39 -12
-40 -55 -40 -40 0 -46 -3 -61 -32 -12 -23 -19 -68 -22 -150 -4 -112 -6 -118
-26 -119 -11 0 -59 0 -106 1 -131 2 -123 16 -133 -257 -19 -530 -12 -899 18
-940 10 -14 33 -18 113 -21 l100 -4 24 -86 c22 -80 25 -86 54 -94 29 -7 32
-12 37 -62 9 -90 24 -103 139 -121 31 -5 39 -11 44 -33 3 -15 23 -78 45 -139
l38 -113 -24 -26 c-45 -49 -22 -114 40 -114 32 0 34 -2 49 -54 13 -45 14 -74
6 -175 -16 -195 14 -415 80 -582 l21 -53 -26 -83 c-28 -88 -35 -98 -134 -220
-35 -43 -70 -92 -77 -109 -11 -26 -19 -31 -56 -34 -38 -3 -85 -3 -135 0 -10 1
-40 -3 -66 -9 -64 -14 -80 -5 -114 66 -16 31 -35 61 -44 67 -12 7 -64 -7 -195
-54 -403 -142 -376 -125 -349 -216 9 -30 13 -59 10 -63 -9 -16 7 -42 34 -53
26 -10 26 -10 6 -25 -11 -8 -64 -42 -118 -75 -94 -58 -116 -85 -86 -104 6 -3
9 -15 6 -25 -3 -10 3 -29 12 -41 23 -29 18 -42 -32 -87 -66 -60 -71 -62 -107
-50 -27 10 -45 6 -138 -26 -146 -51 -176 -68 -341 -186 -79 -57 -155 -112
-170 -121 -14 -10 -26 -25 -26 -35 0 -13 -14 -21 -51 -29 -60 -13 -74 -20 -74
-38 0 -21 -27 -40 -32 -24 -3 8 -13 -1 -26 -22 -54 -92 -67 -108 -123 -150
-87 -65 -109 -93 -109 -143 0 -33 -7 -48 -32 -76 -25 -26 -28 -32 -13 -27 12
4 5 -6 -17 -24 -48 -40 -106 -149 -169 -318 -28 -75 -55 -141 -60 -146 -5 -6
-9 -14 -9 -18 0 -4 171 -8 381 -8 267 0 378 3 374 11 -4 6 -13 8 -21 5 -20 -8
-44 4 -44 21 0 19 29 42 53 43 10 0 20 7 23 15 4 8 17 15 30 15 17 0 33 14 59
52 19 29 35 56 35 60 0 5 -15 8 -34 8 -30 0 -33 3 -28 22 5 21 4 21 -19 5 -46
-33 -54 -12 -13 36 29 34 55 40 91 22 19 -10 21 -14 10 -24 -8 -6 -13 -21 -12
-34 3 -31 3 -31 18 -18 16 13 31 3 18 -13 -8 -10 -101 -214 -101 -222 0 -2 29
-4 64 -4 58 0 65 2 72 23 5 12 7 25 6 29 -3 12 30 -3 65 -28 17 -13 37 -24 43
-24 12 0 -13 54 -38 83 -20 23 -25 62 -5 46 7 -6 13 -7 13 -2 0 9 -43 49 -48
44 -2 -1 -7 1 -10 5 -4 4 -1 4 6 0 15 -9 15 -1 1 26 -9 16 -8 19 3 16 7 -2 38
-51 68 -109 54 -102 56 -104 90 -104 31 0 35 3 38 28 2 17 -16 71 -47 141 -28
63 -51 123 -51 134 0 11 11 36 25 56 14 21 23 41 20 46 -3 4 2 10 10 14 8 3
15 15 15 26 0 11 4 20 8 20 21 0 85 -85 127 -169 26 -52 58 -112 71 -133 13
-21 22 -38 19 -38 -4 0 2 -13 11 -29 10 -17 21 -28 24 -26 4 2 6 -6 6 -18 -1
-12 4 -21 10 -20 7 1 10 -6 7 -20 -4 -18 -3 -19 6 -7 7 10 11 11 11 3 0 -10
183 -13 880 -13 484 0 880 3 880 8 0 4 -20 20 -45 36 -25 15 -44 31 -41 33 3
3 34 2 69 -1 66 -7 107 -31 107 -61 0 -13 27 -15 163 -15 117 0 167 4 176 13
11 10 14 10 18 0 4 -10 137 -13 619 -13 l614 0 1 23 c2 71 8 130 14 135 8 9
229 7 243 -2 8 -4 12 -34 12 -82 0 -67 2 -74 20 -74 18 0 20 7 22 78 l2 77 5
-69 c7 -85 3 -83 189 -85 l132 -1 0 70 c0 40 4 70 10 70 6 0 10 -24 10 -54 0
-94 -31 -86 342 -86 l330 1 -7 67 c-3 37 -15 104 -25 150 -17 80 -17 128 1
116 5 -3 9 0 9 7 0 7 -8 9 -21 6 -19 -5 -20 -2 -16 61 3 42 9 68 17 70 9 3 11
-1 7 -13 -4 -9 -4 -22 0 -28 4 -7 9 -21 11 -32 1 -11 11 -56 22 -101 11 -45
20 -92 20 -103 0 -12 3 -20 8 -18 4 3 7 -8 8 -25 1 -37 19 -57 36 -40 22 22
29 12 28 -40 -1 -29 -1 -59 -1 -65 1 -10 277 -13 1345 -13 1209 0 1346 2 1360
16 15 14 16 14 16 0 0 -14 69 -16 690 -16 l690 0 0 43 c0 42 -33 147 -83 259
-49 109 -190 308 -299 419 -99 102 -104 106 -132 96 -27 -9 -32 -6 -90 54 -34
35 -97 92 -139 127 -58 47 -84 76 -106 121 -19 37 -46 70 -74 92 -25 19 -83
63 -128 98 -116 88 -164 109 -275 117 l-91 7 1 28 c1 16 5 29 10 29 12 0 -2
131 -16 147 -10 12 -4 17 15 14 4 0 7 8 7 19 0 11 -4 20 -10 20 -5 0 -10 -7
-10 -15 0 -8 -5 -15 -11 -15 -13 0 -72 32 -80 44 -4 5 -11 6 -15 3 -5 -3 -10
6 -10 20 -2 28 -15 44 -21 26 -7 -20 -26 -16 -64 13 -41 31 -78 48 -100 45 -9
-1 -46 10 -83 25 -69 27 -83 48 -47 71 11 7 21 28 24 55 4 24 11 65 17 93 8
38 7 52 -2 61 -20 17 -150 67 -342 129 -151 49 -179 55 -193 44 -9 -8 -32 -48
-52 -89 -23 -48 -42 -75 -52 -75 -9 0 -28 -6 -42 -14 -50 -27 -85 -9 -187 95
-52 53 -119 113 -147 135 -33 25 -53 47 -53 60 0 11 -7 36 -15 55 -10 25 -12
41 -5 54 20 37 99 328 114 420 9 52 19 110 22 128 l5 32 67 0 67 0 33 -76 32
-76 -20 -33 c-53 -86 5 -179 70 -110 35 37 38 119 9 226 -12 46 -24 107 -25
134 -1 28 0 40 2 28 3 -13 10 -23 16 -23 6 0 7 9 3 23 -4 12 -11 83 -14 157
-8 165 -18 191 -78 204 -24 6 -43 13 -43 17 0 19 110 232 126 243 13 10 18 30
21 87 1 41 5 88 8 106 6 32 6 32 53 27 71 -8 82 5 89 104 l6 82 85 -2 c80 -2
85 -1 107 24 57 67 79 431 51 868 -16 235 -20 270 -39 305 -20 36 -27 41 -72
47 -28 3 -75 7 -106 7 l-56 1 -7 86 c-9 118 -14 137 -37 131 -11 -3 -17 -2
-15 1 2 4 0 18 -5 31 -7 17 -15 22 -29 18 -35 -9 -47 15 -63 131 -34 231 -220
761 -353 1004 -344 630 -912 1127 -1531 1339 -293 101 -453 129 -763 134 -185
4 -247 1 -351 -15z m1073 -429 c11 -11 8 -12 -12 -6 -28 9 -120 53 -120 59 0
8 121 -41 132 -53z m86 -22 c2 -5 8 -7 13 -3 5 3 9 0 9 -5 0 -6 -7 -11 -15
-11 -8 0 -15 4 -15 9 0 5 -6 9 -12 8 -32 -1 -48 4 -48 14 0 13 63 1 68 -12z
m57 -19 c-3 -5 -10 -10 -16 -10 -5 0 -9 5 -9 10 0 6 7 10 16 10 8 0 12 -4 9
-10z m-1150 -51 c44 -5 184 -16 310 -24 127 -9 275 -22 330 -30 159 -23 307
-57 297 -67 -6 -6 -32 -5 -68 1 -83 14 -231 29 -429 42 -285 18 -672 -11 -950
-72 -392 -86 -819 -281 -1143 -523 -257 -191 -478 -439 -609 -681 -50 -93 -39
-52 17 60 54 109 176 280 200 280 8 1 14 7 12 14 -1 7 2 10 8 6 10 -6 15 9 10
30 -1 6 2 7 6 2 9 -9 104 81 104 98 0 6 12 22 28 35 15 13 61 54 102 91 41 37
125 107 186 156 61 48 149 120 196 160 176 151 464 317 650 377 69 22 229 50
348 60 61 5 297 -4 395 -15z m338 -106 c-23 -2 -64 -2 -90 0 -26 2 -7 3 42 3
50 0 71 -1 48 -3z m312 -22 c157 -25 269 -48 255 -53 -8 -3 -2 -4 13 -2 19 3
26 0 21 -8 -5 -8 2 -9 24 -5 18 4 34 2 38 -4 3 -6 12 -8 20 -5 8 3 14 1 14 -5
0 -6 7 -8 16 -5 20 8 66 -3 59 -14 -7 -11 32 -23 45 -15 5 3 10 1 10 -5 0 -8
10 -10 28 -6 17 4 22 3 14 -2 -11 -8 -11 -10 2 -15 8 -3 16 -1 18 4 2 6 37 -2
81 -17 47 -17 72 -31 65 -35 -7 -5 -16 -3 -20 4 -4 6 -10 8 -14 4 -4 -4 -17 1
-28 10 -12 9 -6 2 12 -16 39 -39 44 -80 10 -82 -17 -1 -19 -2 -5 -6 9 -2 17
-13 17 -23 0 -13 9 -20 28 -22 l27 -4 -24 -10 c-16 -7 -20 -13 -13 -18 7 -4
10 -11 7 -16 -3 -4 3 -7 12 -6 9 0 23 -10 30 -24 7 -14 18 -24 24 -22 7 2 9
-4 5 -14 -5 -12 -2 -15 11 -12 20 5 55 -26 45 -38 -4 -4 1 -4 10 -1 9 3 18 2
20 -2 2 -4 95 -53 208 -109 231 -113 367 -205 466 -317 l59 -66 2 40 c2 33 0
39 -16 38 -12 -1 -17 -6 -13 -16 3 -9 1 -12 -6 -7 -24 14 -13 37 16 34 20 -2
28 -9 30 -28 6 -49 12 -57 28 -36 12 17 14 17 14 4 0 -10 8 -16 19 -15 11 0
17 6 15 12 -3 5 2 1 10 -9 13 -16 13 -22 3 -28 -11 -7 -3 -12 16 -9 5 1 5 -4
1 -10 -4 -7 0 -17 9 -23 8 -7 33 -51 55 -99 22 -47 51 -101 65 -119 43 -58 43
-64 3 -40 -33 20 -37 20 -32 5 3 -10 8 -65 11 -123 4 -58 12 -123 17 -145 6
-22 12 -49 13 -60 2 -11 7 -29 11 -40 4 -11 -17 16 -46 60 -68 102 -285 320
-410 412 -393 290 -852 458 -1446 528 -191 23 -554 23 -734 0 -595 -74 -975
-209 -1400 -496 -363 -245 -658 -585 -704 -811 -7 -35 -15 -56 -19 -48 -3 8
-4 -5 -1 -30 4 -39 3 -42 -6 -18 -9 20 -4 64 20 200 42 239 67 326 156 549
106 270 144 341 265 499 230 302 671 575 1158 715 228 65 516 114 601 101 19
-3 27 -2 18 2 -28 11 590 5 667 -7z m906 -161 c10 -6 19 -16 19 -23 0 -8 -3
-9 -8 -1 -4 6 -16 16 -27 22 -25 14 -11 16 16 2z m69 -35 c14 -8 21 -14 15
-14 -5 0 -21 6 -35 14 -14 8 -20 14 -15 14 6 0 21 -6 35 -14z m-180 -15 c10
-6 11 -10 3 -10 -19 0 -16 -18 5 -23 13 -4 12 -5 -5 -6 -25 -1 -39 14 -22 25
8 4 7 9 -2 15 -8 5 -9 9 -4 9 6 0 17 -5 25 -10z m256 -27 c-2 -3 -13 0 -24 6
-13 7 -23 7 -32 -2 -12 -10 -12 -9 -1 5 10 14 17 15 37 6 13 -6 22 -13 20 -15z
m-16 -13 c9 -5 19 -5 27 2 10 8 12 7 7 -6 -3 -9 -9 -16 -13 -16 -11 1 -56 29
-46 29 6 1 17 -3 25 -9z m529 -504 c7 -8 8 -17 3 -20 -6 -3 -12 3 -15 14 -6
24 -4 25 12 6z m94 -126 c18 -26 23 -39 12 -30 -17 14 -18 13 -12 -2 9 -25 2
-22 -28 10 -17 17 -25 35 -22 50 3 16 0 22 -12 20 -11 -2 -16 5 -17 26 l-1 30
24 -30 c13 -16 38 -49 56 -74z m-56 -59 c0 -11 -5 -18 -9 -15 -4 3 -5 11 -1
19 7 21 12 19 10 -4z m40 -13 c-3 -8 -6 -5 -6 6 -1 11 2 17 5 13 3 -3 4 -12 1
-19z m46 7 c-3 -9 -8 -14 -10 -11 -3 3 -2 9 2 15 9 16 15 13 8 -4z m-2923
-115 c0 -5 -9 -10 -21 -10 -11 0 -17 5 -14 10 3 6 13 10 21 10 8 0 14 -4 14
-10z m-20 -30 c0 -5 -8 -14 -18 -19 -14 -8 -18 -6 -19 10 -1 13 5 19 18 19 10
0 19 -4 19 -10z m165 -100 c-4 -6 -2 -17 4 -24 6 -7 9 -21 5 -30 -4 -9 -1 -16
6 -16 8 0 11 11 8 30 -3 21 -1 27 5 21 7 -7 15 -7 22 -1 15 12 265 -63 331
-100 66 -37 184 -115 162 -106 -48 17 -51 17 -23 -2 23 -15 33 -17 44 -8 11 8
13 8 8 -1 -4 -6 25 -41 71 -84 42 -40 64 -64 48 -54 l-29 19 14 -22 c8 -13 24
-25 36 -28 13 -4 20 -10 17 -16 -3 -5 -11 -4 -20 3 -11 9 -14 7 -14 -9 0 -49
-10 -53 -53 -23 -23 16 -66 50 -96 76 -89 77 -100 80 -216 66 -120 -14 -159
-24 -205 -53 l-35 -22 30 -7 c17 -4 95 -7 175 -8 122 -1 150 -4 175 -20 44
-26 86 -72 78 -84 -3 -6 -1 -7 5 -3 9 5 48 -24 122 -91 3 -3 -2 -4 -10 -3 -27
4 -38 0 -44 -17 -6 -15 -5 -15 13 1 24 22 34 7 18 -28 -13 -27 -33 -34 -40
-13 -3 9 -8 9 -21 -2 -9 -8 -15 -20 -12 -28 8 -20 -11 -16 -34 7 -12 12 -25
18 -30 15 -4 -3 -22 6 -38 20 -16 14 -36 25 -43 25 -8 1 -25 7 -39 15 -25 14
-25 14 -2 15 48 0 18 17 -55 31 -43 8 -76 18 -75 23 7 18 -23 25 -40 9 -10 -9
-19 -13 -19 -10 -1 4 -2 13 -3 20 -1 6 -13 12 -28 12 -14 0 -30 3 -34 8 -4 4
-17 7 -28 7 -12 0 -41 9 -65 21 l-45 20 19 -21 c23 -25 8 -26 -25 0 -17 14
-20 20 -10 21 17 1 -33 18 -70 23 -48 7 -115 28 -137 42 -20 12 -23 23 -23 74
0 33 4 60 8 60 5 0 14 11 20 24 13 29 52 42 52 17 0 -33 103 -108 127 -93 5 4
12 30 15 58 4 39 1 56 -14 74 -19 24 -24 50 -9 50 6 0 13 -6 18 -12 12 -20 20
42 10 80 -9 37 -4 62 13 62 6 0 8 -5 5 -10z m290 -357 c-33 -8 -85 -17 -115
-19 l-55 -4 35 19 c27 16 53 20 115 20 l80 -1 -60 -15z m102 1 c-3 -3 -12 -4
-19 -1 -8 3 -5 6 6 6 11 1 17 -2 13 -5z m-2391 -405 c3 -6 14 -9 24 -6 13 3
17 0 13 -9 -3 -8 0 -14 6 -14 6 0 11 5 11 10 0 6 16 10 35 8 26 -2 32 -5 23
-15 -5 -7 -14 -10 -19 -8 -4 3 -12 -2 -17 -11 -11 -19 -89 -15 -84 5 1 6 -5
14 -13 17 -8 4 -15 12 -15 20 0 17 26 19 36 3z m87 4 c-7 -2 -19 -2 -25 0 -7
3 -2 5 12 5 14 0 19 -2 13 -5z m286 -265 c-2 -145 -2 -150 -16 -115 -8 20 -18
37 -22 37 -3 0 -17 -16 -30 -36 -16 -23 -27 -31 -32 -23 -4 7 -7 -5 -7 -25 0
-21 -3 -40 -6 -43 -20 -20 7 154 35 232 11 28 70 125 77 125 2 0 2 -68 1 -152z
m5115 137 c3 -8 8 -37 12 -64 7 -58 -7 -74 -36 -39 -22 26 -27 103 -7 111 20
9 25 8 31 -8z m-5598 -89 c-3 -45 -7 -126 -8 -181 -1 -55 -3 -79 -5 -52 -2 26
-8 47 -12 47 -5 0 -6 -11 -3 -25 3 -18 0 -25 -12 -25 -14 0 -16 16 -16 115 0
62 5 136 11 163 9 43 13 49 31 44 20 -5 20 -10 14 -86z m307 -6 c-3 -22 -10
-40 -15 -40 -6 0 -7 7 -4 16 3 9 6 39 7 67 1 43 2 48 9 25 4 -15 6 -46 3 -68z
m5171 72 c3 -5 0 -9 -7 -10 -70 -11 -101 -13 -94 -6 4 4 26 11 50 15 23 3 43
7 44 8 1 0 4 -3 7 -7z m-5354 -18 c0 -8 -19 -13 -24 -6 -3 5 1 9 9 9 8 0 15
-2 15 -3z m78 -52 l3 -42 -52 0 c-57 0 -57 0 0 63 33 36 45 30 49 -21z m-51
-58 c-3 -3 -12 -4 -19 -1 -8 3 -5 6 6 6 11 1 17 -2 13 -5z m140 -81 c-3 -10
-5 -4 -5 12 0 17 2 24 5 18 2 -7 2 -21 0 -30z m-318 -155 c-2 -20 1 -32 8 -31
6 1 13 -15 17 -35 5 -36 7 -37 44 -36 l39 2 12 -77 c10 -69 14 -247 5 -211 -4
11 -20 15 -67 14 -34 0 -67 -3 -73 -7 -19 -11 -54 40 -54 81 0 77 22 217 35
228 8 6 15 31 17 57 2 26 7 47 11 47 5 0 7 -15 6 -32z m5805 -153 c18 -103 21
-209 6 -200 -5 3 -10 1 -10 -4 0 -23 -30 -9 -45 20 -22 42 -34 271 -15 294 24
29 47 -10 64 -110z m-5970 68 c9 4 11 -2 8 -19 -2 -14 0 -24 7 -24 6 0 11 7
11 15 0 9 9 15 21 15 22 0 22 -1 15 -142 -4 -79 -9 -144 -10 -145 -2 -2 -16
-5 -32 -7 -16 -2 -36 -6 -44 -10 -35 -13 -69 42 -72 117 -1 36 -2 34 -8 -18
-6 -54 -7 -56 -10 -20 l-3 40 -7 -40 c-5 -27 -7 -2 -7 75 0 77 2 102 7 75 6
-32 7 -34 9 -12 0 16 5 26 11 22 6 -4 10 -3 9 2 -1 4 0 19 1 33 l2 25 7 -24
c5 -21 8 -17 20 27 7 29 17 50 21 47 5 -3 12 0 17 7 5 9 9 4 11 -15 2 -18 8
-27 16 -24z m5802 15 c3 -4 9 -6 13 -3 7 4 21 -133 21 -210 0 -35 -31 -57 -69
-50 -11 2 -34 0 -51 -5 -24 -7 -30 -6 -30 6 0 8 -4 12 -10 9 -12 -7 -14 247
-3 259 10 10 123 5 129 -6z m-5401 -255 c-5 -43 -10 -51 -26 -50 -18 1 -19 10
-19 114 0 69 4 113 10 113 6 0 10 15 10 33 0 24 3 28 10 17 8 -13 10 -12 12 5
1 11 4 -25 6 -80 2 -55 0 -123 -3 -152z m180 178 c13 -32 21 -161 10 -162 -5
0 -4 -3 3 -6 6 -2 12 -14 11 -26 0 -21 -1 -21 -8 -3 -5 14 -10 16 -15 8 -4 -7
-4 -16 -1 -22 3 -5 1 -10 -4 -10 -6 0 -11 9 -11 21 0 11 -4 17 -10 14 -6 -4
-10 31 -10 98 0 84 3 104 15 104 8 0 17 -7 20 -16z m52 -128 c-3 -10 -5 -2 -5
17 0 19 2 27 5 18 2 -10 2 -26 0 -35z m5420 -50 c-2 -16 -4 -5 -4 22 0 28 2
40 4 28 2 -13 2 -35 0 -50z m-5450 -65 c-3 -8 -6 -5 -6 6 -1 11 2 17 5 13 3
-3 4 -12 1 -19z m100 -1090 c-3 -8 -6 -5 -6 6 -1 11 2 17 5 13 3 -3 4 -12 1
-19z m-192 -69 c-5 -13 -3 -19 3 -15 5 3 12 0 15 -7 3 -8 -1 -14 -9 -14 -16 0
-25 22 -18 42 9 23 16 18 9 -6z m225 -536 c61 -103 80 -147 36 -83 -24 35
-126 228 -106 200 6 -8 37 -61 70 -117z m419 -165 c240 -268 451 -433 726
-568 327 -160 666 -233 1090 -234 391 0 699 61 1009 202 137 63 350 193 448
274 42 35 47 37 53 19 6 -18 7 -18 30 5 13 13 31 24 40 24 9 0 13 5 10 10 -3
6 -2 10 4 10 5 0 16 3 25 6 11 4 16 1 16 -10 0 -10 9 -16 24 -16 22 0 36 -16
36 -41 0 -5 -7 -9 -16 -9 -8 0 -12 -5 -8 -11 10 -17 -109 -122 -233 -206 -62
-42 -110 -79 -108 -83 3 -4 -3 -7 -13 -6 -9 0 -16 -4 -15 -11 2 -7 -3 -10 -10
-7 -7 2 -21 -3 -32 -12 -11 -8 -13 -12 -5 -8 10 5 12 4 5 -4 -14 -15 -197
-105 -285 -140 -447 -176 -947 -224 -1454 -137 -388 66 -744 226 -1076 484
-125 96 -297 273 -365 374 l-60 89 37 34 c21 19 45 34 54 34 10 0 42 -28 73
-62z m-308 28 c14 -4 26 -13 26 -20 0 -17 -37 -8 -44 11 -4 11 -8 11 -13 3 -5
-8 -9 -7 -13 3 -6 15 -2 16 44 3z m4235 -12 c-12 -9 -16 -19 -11 -34 l7 -22
-21 21 c-12 12 -21 25 -21 29 0 17 22 29 42 24 20 -5 20 -6 4 -18z m-4171 -30
c9 -15 12 -23 6 -20 -11 7 -35 46 -28 46 3 0 12 -12 22 -26z m520 -4 c10 -11
16 -20 13 -20 -3 0 -13 9 -23 20 -10 11 -16 20 -13 20 3 0 13 -9 23 -20z
m-840 -138 c-5 -5 -25 69 -24 88 0 8 7 -7 14 -35 8 -27 12 -51 10 -53z m415
-77 c0 5 49 -41 108 -101 128 -130 230 -213 372 -306 117 -76 329 -184 494
-251 60 -25 102 -47 95 -50 -8 -4 -3 -6 11 -5 14 1 34 0 45 -1 17 -1 18 -3 5
-12 -11 -8 -8 -9 15 -5 23 5 27 4 15 -4 -12 -9 -7 -10 20 -6 32 5 33 5 9 -4
-21 -9 -46 -4 -137 29 -379 135 -683 318 -922 553 -74 73 -181 196 -147 169 9
-7 17 -10 17 -6z m3700 -4 c0 -6 -4 -13 -10 -16 -5 -3 -10 1 -10 9 0 9 5 16
10 16 6 0 10 -4 10 -9z m-4060 -36 c0 -5 -5 -3 -10 5 -5 8 -10 20 -10 25 0 6
5 3 10 -5 5 -8 10 -19 10 -25z m28 10 c-3 -3 -9 2 -12 12 -6 14 -5 15 5 6 7
-7 10 -15 7 -18z m3982 5 c0 -5 -8 -10 -17 -10 -15 0 -16 2 -3 10 19 12 20 12
20 0z m-3960 -41 c0 -6 -4 -7 -10 -4 -5 3 -10 11 -10 16 0 6 5 7 10 4 6 -3 10
-11 10 -16z m-20 -29 c6 -11 8 -20 6 -20 -3 0 -10 9 -16 20 -6 11 -8 20 -6 20
3 0 10 -9 16 -20z m115 -140 c62 -96 188 -242 309 -357 58 -56 102 -104 97
-108 -6 -3 -18 6 -27 20 -9 13 -19 23 -23 20 -4 -2 -32 24 -61 58 -30 34 -61
66 -70 71 -27 15 -139 139 -134 148 3 4 1 8 -5 8 -5 0 -40 39 -79 88 -73 92
-108 142 -99 142 3 0 15 -16 27 -36 32 -50 37 -34 6 19 -14 24 -26 48 -26 53
0 5 10 -7 22 -26 11 -19 40 -64 63 -100z m3835 -43 c0 -2 -10 -12 -22 -23
l-23 -19 19 23 c18 21 26 27 26 19z m-210 -183 c0 -1 -39 -28 -87 -60 -123
-81 -301 -163 -490 -228 -205 -69 -336 -97 -483 -101 -63 -1 -167 -6 -230 -10
-147 -9 -434 8 -574 35 -61 11 -128 20 -150 20 -31 0 -37 3 -26 11 11 7 4 8
-25 4 -31 -5 -37 -4 -25 5 12 9 10 10 -12 6 -15 -4 -49 -1 -75 6 -38 9 -43 13
-27 19 28 11 41 10 24 -2 -12 -8 -9 -9 12 -5 15 3 55 -1 90 -9 362 -86 752
-97 1118 -33 69 12 143 22 164 21 28 -1 35 2 25 9 -10 6 -3 7 21 3 23 -4 30
-3 22 3 -11 7 -7 11 13 16 15 4 30 5 33 1 3 -3 -3 -5 -13 -5 -10 0 -16 -3 -13
-6 3 -3 26 0 49 7 24 6 38 14 30 17 -8 2 45 26 118 53 140 52 319 134 414 190
46 28 97 45 97 33z m-4476 -173 c-4 -3 -9 0 -11 7 -3 6 -14 12 -26 12 -21 1
-21 1 3 15 23 12 26 12 33 -7 4 -12 4 -24 1 -27z m-72 12 c-6 -2 -10 -8 -7
-13 3 -4 -5 -8 -18 -7 -12 0 -35 -3 -52 -6 -16 -4 -7 2 20 12 28 11 55 19 60
19 6 0 4 -2 -3 -5z m38 -23 c-8 -5 -19 -10 -25 -10 -5 0 -3 5 5 10 8 5 20 10
25 10 6 0 3 -5 -5 -10z m-138 -27 c8 3 21 2 28 -3 15 -9 -41 -26 -98 -29 -15
-1 -21 -5 -16 -13 4 -7 3 -8 -4 -4 -14 8 -64 -3 -57 -14 2 -4 -13 -6 -35 -5
-22 1 -37 -2 -34 -6 3 -5 1 -9 -5 -9 -5 0 -12 4 -15 9 -8 12 110 55 125 45 7
-4 10 -3 6 3 -7 12 32 25 55 20 7 -2 9 -2 4 1 -4 2 -2 8 5 13 8 4 16 3 20 -3
4 -6 13 -8 21 -5z m1484 -60 c-10 -11 -19 -7 -22 10 -2 15 0 16 12 6 8 -6 12
-14 10 -16z m137 -103 c-1 -4 5 -7 15 -6 9 0 16 -5 14 -12 -1 -8 2 -11 7 -8 5
3 45 -16 88 -42 219 -135 384 -205 673 -282 58 -16 96 -29 85 -30 l-20 -1 20
-10 c40 -19 -59 3 -173 37 -144 44 -268 92 -407 159 -109 52 -289 163 -312
192 -6 8 -15 15 -20 16 -4 1 -7 5 -5 10 1 4 -2 7 -8 7 -19 0 -25 3 -37 19 -6
9 -17 16 -24 16 -7 0 -13 8 -15 17 -1 11 17 3 59 -29 34 -25 61 -49 60 -53z
m2677 -261 c0 -11 -4 -17 -10 -14 -5 3 -10 13 -10 21 0 8 5 14 10 14 6 0 10
-9 10 -21z m-80 -36 c0 -19 -6 -16 -24 12 -17 25 -16 25 4 13 11 -7 20 -18 20
-25z m44 28 c3 -4 -6 -6 -19 -3 -14 2 -25 6 -25 8 0 8 39 4 44 -5z m-1468 -43
c4 -7 4 -10 -1 -6 -4 4 -17 3 -29 -3 -20 -10 -20 -10 -2 5 24 19 23 19 32 4z
m996 -65 c-6 -3 -9 -10 -6 -15 4 -7 2 -8 -5 -4 -8 6 -9 12 -2 20 6 7 9 15 7
18 -1 3 2 1 8 -4 8 -8 7 -12 -2 -15z m-1235 -29 c-3 -3 -12 -4 -19 -1 -8 3 -5
6 6 6 11 1 17 -2 13 -5z m90 0 c-3 -3 -12 -4 -19 -1 -8 3 -5 6 6 6 11 1 17 -2
13 -5z m-44 -11 c-7 -2 -19 -2 -25 0 -7 3 -2 5 12 5 14 0 19 -2 13 -5z m44 -9
c-3 -3 -12 -4 -19 -1 -8 3 -5 6 6 6 11 1 17 -2 13 -5z m993 -12 l-25 -5 25 -8
c22 -8 21 -8 -7 -4 -19 2 -33 0 -36 -8 -3 -9 -84 -12 -333 -12 -310 0 -493 9
-479 23 3 4 61 9 128 12 155 8 760 9 727 2z m2542 -482 c3 -22 2 -27 -8 -19
-6 5 -10 19 -7 29 7 27 10 25 15 -10z m-7169 -113 c4 3 7 4 7 0 0 -18 -20 -13
-41 11 l-24 27 26 -23 c14 -12 29 -19 32 -15z m8383 -79 c-3 -18 -10 -34 -14
-38 -4 -3 -8 -23 -9 -45 -4 -93 -12 -105 -185 -283 -40 -40 -80 -78 -90 -83
-22 -12 -24 -29 -3 -29 19 0 136 58 150 75 5 6 31 20 57 29 46 17 70 33 168
114 57 47 75 52 65 21 -5 -16 -3 -20 12 -19 44 5 45 6 -72 -94 -85 -73 -194
-134 -317 -177 -35 -12 -37 -12 -65 21 -55 65 -55 58 1 139 29 42 58 89 64
104 l12 29 -37 -31 c-20 -17 -38 -29 -40 -27 -6 6 28 92 61 151 72 128 125
174 205 175 l44 0 -7 -32z m-7161 -38 c-3 -5 -12 -10 -18 -10 -7 0 -6 4 3 10
19 12 23 12 15 0z m55 -5 c0 -8 -4 -15 -10 -15 -5 0 -10 7 -10 15 0 8 5 15 10
15 6 0 10 -7 10 -15z m-1235 -67 c4 -4 5 -15 3 -25 -3 -17 -5 -16 -22 4 -15
17 -24 20 -38 12 -10 -5 -18 -6 -18 -2 0 4 -5 1 -10 -7 -6 -10 -10 -11 -10 -2
0 6 -9 12 -20 12 -11 0 -20 4 -20 8 0 10 126 9 135 0z m1702 -10 c-3 -8 -6 -5
-6 6 -1 11 2 17 5 13 3 -3 4 -12 1 -19z m6316 10 c7 -22 -32 -68 -59 -68 -32
0 -30 11 8 49 35 34 44 37 51 19z m-8774 -112 c-23 -21 -23 -21 -6 0 9 11 18
34 18 50 l2 29 4 -29 c3 -21 -2 -35 -18 -50z m2030 23 c11 -18 11 -23 -1 -30
-7 -5 -16 -9 -20 -9 -12 0 -19 18 -9 25 6 3 8 12 4 20 -8 23 10 18 26 -6z
m157 -18 c-3 -4 6 -15 19 -25 23 -17 26 -44 4 -30 -5 3 -15 1 -22 -4 -16 -13
-42 5 -52 37 -6 21 -5 23 14 18 14 -3 21 0 21 10 0 8 5 11 10 8 6 -4 8 -10 6
-14z m-947 -28 c-2 -25 -2 -26 -6 -5 -4 20 -6 21 -16 9 -14 -18 -66 -27 -66
-12 0 6 9 9 21 7 11 -2 18 1 14 6 -6 10 11 18 42 21 7 1 11 -10 11 -26z m-653
-4 c1 -8 2 -20 3 -26 0 -7 6 -13 12 -13 8 0 8 5 -1 15 -9 11 -9 15 -1 15 6 0
17 -12 23 -26 13 -27 1 -57 -42 -114 -21 -28 -32 -23 -36 17 -2 16 -6 44 -9
63 -5 31 -4 33 6 13 19 -37 26 -27 22 28 -3 39 -1 50 9 47 7 -3 14 -11 14 -19z
m244 11 c0 -5 -7 -7 -15 -4 -8 4 -15 8 -15 10 0 2 7 4 15 4 8 0 15 -4 15 -10z
m4390 -6 c0 -8 -5 -12 -10 -9 -6 4 -8 11 -5 16 9 14 15 11 15 -7z m-4449 -11
c0 -11 3 -13 6 -5 8 21 23 13 23 -14 0 -30 -125 -210 -160 -232 -21 -13 -21
-12 -5 17 20 39 19 41 -11 41 -15 0 -23 4 -19 11 4 6 13 8 21 5 7 -3 16 -1 19
4 4 6 -8 10 -27 10 l-33 0 28 15 c15 8 33 12 41 9 13 -5 41 43 51 89 3 15 12
27 20 27 7 0 17 9 20 20 8 25 25 26 26 3z m5124 -23 c3 -5 1 -10 -4 -10 -6 0
-11 5 -11 10 0 6 2 10 4 10 3 0 8 -4 11 -10z m-4680 -11 c10 -15 -1 -23 -20
-15 -9 3 -13 10 -10 16 8 13 22 13 30 -1z m1378 -59 c4 -32 2 -36 -19 -38 -13
-1 -26 3 -29 8 -3 6 1 10 10 10 12 0 15 5 11 16 -4 9 -1 23 5 31 15 17 16 16
22 -27z m-43 20 c0 -5 -2 -10 -4 -10 -3 0 -8 5 -11 10 -3 6 -1 10 4 10 6 0 11
-4 11 -10z m3207 -5 c0 -8 -4 -15 -9 -15 -4 0 -8 7 -8 15 0 8 4 15 8 15 5 0 9
-7 9 -15z m-4680 -17 c-3 -8 -6 -5 -6 6 -1 11 2 17 5 13 3 -3 4 -12 1 -19z
m8247 7 c7 -19 -12 -63 -41 -93 -27 -27 -31 -42 -5 -20 9 8 25 18 35 21 45 16
-9 -89 -73 -141 -25 -20 -46 -40 -48 -44 -2 -5 -18 -8 -36 -8 -30 0 -32 2 -33
41 -2 35 3 45 39 80 22 21 44 39 49 39 5 0 9 9 9 20 0 25 -11 25 -52 0 -18
-11 -42 -20 -52 -20 -15 0 -12 6 16 28 19 15 59 46 87 70 54 43 94 54 105 27z
m-8517 -22 c0 -25 -33 -70 -51 -70 -11 0 -7 12 15 44 34 49 36 50 36 26z
m1703 -12 c0 -5 -10 -8 -22 -7 -13 0 -22 -3 -21 -9 1 -5 -14 -10 -33 -11 -41
-1 -32 12 22 31 38 13 54 12 54 -4z m110 -54 c0 -8 -11 -19 -25 -25 -28 -13
-34 -32 -10 -32 8 0 15 -4 15 -10 0 -12 -17 -13 -24 -1 -3 5 -15 7 -26 4 -11
-3 -20 0 -20 6 0 14 37 51 44 44 3 -3 12 2 21 11 20 19 25 20 25 3z m630 -13
c0 -8 -5 -12 -10 -9 -6 4 -8 11 -5 16 9 14 15 11 15 -7z m-463 -16 c-3 -8 -6
-5 -6 6 -1 11 2 17 5 13 3 -3 4 -12 1 -19z m-2037 -26 c0 -13 -12 -22 -22 -16
-10 6 -1 24 13 24 5 0 9 -4 9 -8z m1740 -13 c12 -8 10 -9 -7 -4 -17 5 -23 2
-23 -9 0 -10 9 -16 23 -16 12 -1 -30 -16 -93 -35 -63 -18 -124 -36 -135 -40
-16 -6 -17 -5 -5 4 13 9 13 11 -1 11 -28 0 -83 -27 -68 -33 9 -3 9 -6 2 -6
-23 -2 -23 18 -1 31 13 7 26 11 31 10 4 -1 7 2 7 7 0 4 30 16 66 26 47 13 62
20 52 27 -9 7 -4 8 15 3 19 -4 26 -2 22 5 -5 7 2 9 21 4 18 -5 25 -3 20 4 -5
9 10 16 49 20 6 1 17 -3 25 -9z m316 -16 c-10 -10 -19 5 -10 18 6 11 8 11 12
0 2 -7 1 -15 -2 -18z m458 -15 c17 -40 51 -84 42 -55 -3 11 -2 16 4 12 6 -3 7
-17 4 -30 -4 -15 0 -26 9 -32 8 -4 17 -21 21 -38 l6 -30 -15 25 c-8 14 -14 19
-15 11 0 -23 -9 -8 -45 80 -38 89 -37 89 -30 89 3 0 11 -15 19 -32z m5750 -9
c-53 -56 -127 -77 -160 -45 -21 22 -18 26 24 27 20 0 60 11 87 24 70 33 85 31
49 -6z m-8270 -11 c-7 -10 -34 -10 -34 0 0 4 5 13 12 20 9 9 14 9 19 0 4 -7 5
-16 3 -20z m2101 2 c-8 -14 -44 -18 -48 -6 -3 6 7 11 24 12 16 1 26 -2 24 -6z
m25 -82 c0 -5 -9 -4 -20 2 -11 6 -20 18 -20 27 0 14 2 14 20 -2 11 -10 20 -22
20 -27z m-740 11 c0 -5 -4 -9 -10 -9 -5 0 -10 7 -10 16 0 8 5 12 10 9 6 -3 10
-10 10 -16z m180 -19 c-8 -5 -22 -9 -30 -9 -10 0 -8 3 5 9 27 12 43 12 25 0z
m2650 -56 c0 -40 -18 -36 -22 5 -3 31 -1 37 9 29 7 -6 13 -21 13 -34z m120
-29 c0 -8 -4 -15 -9 -15 -13 0 -22 16 -14 24 11 11 23 6 23 -9z m-1700 -9 c0
-3 -4 -8 -10 -11 -5 -3 -10 -1 -10 4 0 6 5 11 10 11 6 0 10 -2 10 -4z"/>
<path d="M3439 8193 c-13 -16 -12 -17 4 -4 9 7 17 15 17 17 0 8 -8 3 -21 -13z"/>
<path d="M5930 8831 c0 -7 -5 -9 -12 -5 -8 4 -9 3 -5 -2 11 -12 98 -14 91 -2
-4 5 -16 7 -27 4 -12 -3 -27 0 -34 6 -9 7 -13 7 -13 -1z"/>
<path d="M6498 8698 c5 -5 16 -8 23 -6 8 3 3 7 -10 11 -17 4 -21 3 -13 -5z"/>
<path d="M6568 8613 c6 -2 18 -2 25 0 6 3 1 5 -13 5 -14 0 -19 -2 -12 -5z"/>
<path d="M7549 7823 c12 -18 24 -33 27 -33 9 0 -15 37 -33 51 -12 10 -11 5 6
-18z"/>
<path d="M7530 7993 c0 -6 8 -17 18 -24 16 -13 16 -13 2 6 -8 11 -16 22 -17
24 -2 2 -3 0 -3 -6z"/>
<path d="M5250 7446 c0 -11 104 -67 119 -63 10 2 -8 16 -46 35 -62 32 -73 36
-73 28z"/>
<path d="M5160 7236 c0 -2 7 -9 15 -16 13 -11 14 -10 9 4 -5 14 -24 23 -24 12z"/>
<path d="M5278 7213 c7 -3 16 -2 19 1 4 3 -2 6 -13 5 -11 0 -14 -3 -6 -6z"/>
<path d="M2869 6703 c-13 -17 -13 -17 6 -3 11 8 22 16 24 17 2 2 0 3 -6 3 -6
0 -17 -8 -24 -17z"/>
<path d="M2740 6130 c0 -5 5 -10 11 -10 5 0 7 5 4 10 -3 6 -8 10 -11 10 -2 0
-4 -4 -4 -10z"/>
<path d="M3070 6219 c0 -11 4 -18 10 -14 5 3 7 12 3 20 -7 21 -13 19 -13 -6z"/>
<path d="M3520 3896 c0 -2 8 -10 18 -17 15 -13 16 -12 3 4 -13 16 -21 21 -21
13z"/>
<path d="M4490 3230 c8 -5 20 -10 25 -10 6 0 3 5 -5 10 -8 5 -19 10 -25 10 -5
0 -3 -5 5 -10z"/>
<path d="M4540 3210 c8 -5 20 -10 25 -10 6 0 3 5 -5 10 -8 5 -19 10 -25 10 -5
0 -3 -5 5 -10z"/>
<path d="M3290 3660 c12 -16 24 -30 26 -30 3 0 -4 14 -16 30 -12 17 -24 30
-26 30 -3 0 4 -13 16 -30z"/>
<path d="M3320 3616 c0 -2 8 -10 18 -17 15 -13 16 -12 3 4 -13 16 -21 21 -21
13z"/>
<path d="M4788 3133 c7 -3 16 -2 19 1 4 3 -2 6 -13 5 -11 0 -14 -3 -6 -6z"/>
<path d="M4728 2693 c7 -3 16 -2 19 1 4 3 -2 6 -13 5 -11 0 -14 -3 -6 -6z"/>
<path d="M9595 1900 c-3 -5 -2 -10 4 -10 5 0 13 5 16 10 3 6 2 10 -4 10 -5 0
-13 -4 -16 -10z"/>
<path d="M2746 1723 c-11 -11 -7 -20 9 -20 8 0 15 4 15 8 0 11 -16 20 -24 12z"/>
<path d="M9839 1413 c-13 -16 -12 -17 4 -4 16 13 21 21 13 21 -2 0 -10 -8 -17
-17z"/>
<path d="M2960 1410 c-18 -12 -2 -12 25 0 13 6 15 9 5 9 -8 0 -22 -4 -30 -9z"/>
<path d="M2890 1390 c-18 -12 -2 -12 25 0 13 6 15 9 5 9 -8 0 -22 -4 -30 -9z"/>
<path d="M8415 5300 c-3 -5 -1 -10 4 -10 6 0 11 5 11 10 0 6 -2 10 -4 10 -3 0
-8 -4 -11 -10z"/>
<path d="M8410 5241 c0 -12 6 -21 16 -21 9 0 14 7 12 17 -5 25 -28 28 -28 4z"/>
<path d="M9936 2361 c-4 -7 -5 -15 -2 -18 9 -9 19 4 14 18 -4 11 -6 11 -12 0z"/>
<path d="M1530 1388 c57 -60 60 -81 4 -27 -29 28 -64 33 -48 7 5 -7 2 -8 -5
-4 -7 5 -10 14 -7 22 3 7 1 16 -5 19 -5 4 -6 11 -3 17 4 6 2 8 -4 4 -13 -8
-11 -18 21 -118 13 -42 22 -88 20 -102 l-5 -26 97 0 97 0 -17 28 c-44 69 -85
120 -140 176 -51 53 -52 53 -5 4z"/>
<path d="M1327 1259 c7 -7 15 -10 18 -7 3 3 -2 9 -12 12 -14 6 -15 5 -6 -5z"/>
<path d="M5276 1238 c-32 -46 -3 -84 30 -40 13 16 14 16 8 0 -6 -19 3 -22 30
-12 19 7 21 45 4 62 -19 19 -55 14 -72 -10z"/>
<path d="M3550 1208 c0 -18 5 -28 15 -28 19 0 19 11 0 36 -14 18 -14 18 -15
-8z"/>
<path d="M6535 1190 c-3 -5 -1 -10 4 -10 6 0 11 5 11 10 0 6 -2 10 -4 10 -3 0
-8 -4 -11 -10z"/>
</g>
</svg>
